# xmcd CD database file
#
# Track frame offsets:
#	150
#	16387
#	29572
#	54430
#	76572
#	96552
#	120362
#	137637
#	161562
#	182865
#
# Disc length: 2732 seconds
#
# Revision: 0
# Processed by: cddbd v1.5.1PL2 Copyright (c) Steve Scherf et al.
# Submitted via: CDex 1.51
#
DISCID=790aaa0a
DTITLE=ブロス - Bross
DYEAR=1993
DGENRE=JPop
TTITLE0=コミュニケーション(Album Mix)
TTITLE1=人間とサル
TTITLE2=あなたに逢いに行かなくちゃ
TTITLE3=晴れハレルヤ
TTITLE4=Last X'mas Night
TTITLE5=あふれるままに
TTITLE6=ゴージャス
TTITLE7=大切にしたい夜
TTITLE8=ハレンチカンカン
TTITLE9=Don't Be Cryin'. You Are My Friend.
EXTD=YEAR: 1993
EXTT0=
EXTT1=
EXTT2=
EXTT3=
EXTT4=
EXTT5=
EXTT6=
EXTT7=
EXTT8=
EXTT9=
PLAYORDER=
